<svg width="24" height="24" viewBox="0 0 24 24" fill="none" xmlns="http://www.w3.org/2000/svg">
<path d="M18.4375 20.9482H5.56348C4.9397 20.9833 4.32727 20.7709 3.85918 20.3571C3.39109 19.9433 3.10516 19.3616 3.06348 18.7382V7.73818C3.10491 7.11464 3.39073 6.53263 3.85885 6.11863C4.32696 5.70463 4.93954 5.49209 5.56348 5.52718H6.02548C6.15808 5.52718 6.28526 5.57986 6.37903 5.67363C6.4728 5.7674 6.52548 5.89458 6.52548 6.02718C6.52548 6.15979 6.4728 6.28697 6.37903 6.38074C6.28526 6.47451 6.15808 6.52718 6.02548 6.52718H5.56348C5.20486 6.49334 4.84723 6.60106 4.56696 6.82733C4.28669 7.05361 4.106 7.38049 4.06348 7.73818V18.7382C4.10624 19.0957 4.28703 19.4223 4.56727 19.6484C4.84752 19.8745 5.20502 19.982 5.56348 19.9482H18.4375C18.7959 19.982 19.1534 19.8745 19.4337 19.6484C19.7139 19.4223 19.8947 19.0957 19.9375 18.7382V7.73818C19.895 7.38049 19.7143 7.05361 19.434 6.82733C19.1537 6.60106 18.7961 6.49334 18.4375 6.52718H17.9755C17.8429 6.52718 17.7157 6.47451 17.6219 6.38074C17.5282 6.28697 17.4755 6.15979 17.4755 6.02718C17.4755 5.89458 17.5282 5.7674 17.6219 5.67363C17.7157 5.57986 17.8429 5.52718 17.9755 5.52718H18.4375C19.0614 5.49209 19.674 5.70463 20.1421 6.11863C20.6102 6.53263 20.896 7.11464 20.9375 7.73818V18.7382C20.8958 19.3616 20.6099 19.9433 20.1418 20.3571C19.6737 20.7709 19.0613 20.9833 18.4375 20.9482Z" fill="#D3A188"/>
<path d="M18.4375 20.9482H5.56348C4.9397 20.9833 4.32727 20.7709 3.85918 20.3571C3.39109 19.9433 3.10516 19.3616 3.06348 18.7382V7.73818C3.10491 7.11464 3.39073 6.53263 3.85885 6.11863C4.32696 5.70463 4.93954 5.49209 5.56348 5.52718H6.02548C6.15808 5.52718 6.28526 5.57986 6.37903 5.67363C6.4728 5.7674 6.52548 5.89458 6.52548 6.02718C6.52548 6.15979 6.4728 6.28697 6.37903 6.38074C6.28526 6.47451 6.15808 6.52718 6.02548 6.52718H5.56348C5.20486 6.49334 4.84723 6.60106 4.56696 6.82733C4.28669 7.05361 4.106 7.38049 4.06348 7.73818V18.7382C4.10624 19.0957 4.28703 19.4223 4.56727 19.6484C4.84752 19.8745 5.20502 19.982 5.56348 19.9482H18.4375C18.7959 19.982 19.1534 19.8745 19.4337 19.6484C19.7139 19.4223 19.8947 19.0957 19.9375 18.7382V7.73818C19.895 7.38049 19.7143 7.05361 19.434 6.82733C19.1537 6.60106 18.7961 6.49334 18.4375 6.52718H17.9755C17.8429 6.52718 17.7157 6.47451 17.6219 6.38074C17.5282 6.28697 17.4755 6.15979 17.4755 6.02718C17.4755 5.89458 17.5282 5.7674 17.6219 5.67363C17.7157 5.57986 17.8429 5.52718 17.9755 5.52718H18.4375C19.0614 5.49209 19.674 5.70463 20.1421 6.11863C20.6102 6.53263 20.896 7.11464 20.9375 7.73818V18.7382C20.8958 19.3616 20.6099 19.9433 20.1418 20.3571C19.6737 20.7709 19.0613 20.9833 18.4375 20.9482Z" fill="url(#paint0_linear_2001_1529)"/>
<path d="M15.3551 10.5918L12.3551 13.5918C12.2628 13.686 12.137 13.7399 12.0051 13.7418C11.9382 13.7417 11.8719 13.7284 11.8101 13.7027C11.7483 13.6769 11.6923 13.6392 11.6451 13.5918L8.64509 10.5918C8.55094 10.4976 8.49805 10.3699 8.49805 10.2368C8.49805 10.1036 8.55094 9.97591 8.64509 9.88176C8.73924 9.78761 8.86694 9.73471 9.00009 9.73471C9.13324 9.73471 9.26094 9.78761 9.35509 9.88176L11.4951 12.0208V3.55176C11.4972 3.41979 11.5505 3.29381 11.6438 3.20049C11.7371 3.10716 11.8631 3.05382 11.9951 3.05176C12.1277 3.05176 12.2549 3.10444 12.3486 3.1982C12.4424 3.29197 12.4951 3.41915 12.4951 3.55176V12.0418L14.6451 9.88176C14.6917 9.83514 14.7471 9.79816 14.808 9.77293C14.8689 9.7477 14.9342 9.73471 15.0001 9.73471C15.066 9.73471 15.1313 9.7477 15.1922 9.77293C15.2531 9.79816 15.3085 9.83514 15.3551 9.88176C15.4017 9.92838 15.4387 9.98372 15.4639 10.0446C15.4892 10.1055 15.5021 10.1708 15.5021 10.2368C15.5021 10.3027 15.4892 10.368 15.4639 10.4289C15.4387 10.4898 15.4017 10.5451 15.3551 10.5918Z" fill="#D3A188"/>
<path d="M15.3551 10.5918L12.3551 13.5918C12.2628 13.686 12.137 13.7399 12.0051 13.7418C11.9382 13.7417 11.8719 13.7284 11.8101 13.7027C11.7483 13.6769 11.6923 13.6392 11.6451 13.5918L8.64509 10.5918C8.55094 10.4976 8.49805 10.3699 8.49805 10.2368C8.49805 10.1036 8.55094 9.97591 8.64509 9.88176C8.73924 9.78761 8.86694 9.73471 9.00009 9.73471C9.13324 9.73471 9.26094 9.78761 9.35509 9.88176L11.4951 12.0208V3.55176C11.4972 3.41979 11.5505 3.29381 11.6438 3.20049C11.7371 3.10716 11.8631 3.05382 11.9951 3.05176C12.1277 3.05176 12.2549 3.10444 12.3486 3.1982C12.4424 3.29197 12.4951 3.41915 12.4951 3.55176V12.0418L14.6451 9.88176C14.6917 9.83514 14.7471 9.79816 14.808 9.77293C14.8689 9.7477 14.9342 9.73471 15.0001 9.73471C15.066 9.73471 15.1313 9.7477 15.1922 9.77293C15.2531 9.79816 15.3085 9.83514 15.3551 9.88176C15.4017 9.92838 15.4387 9.98372 15.4639 10.0446C15.4892 10.1055 15.5021 10.1708 15.5021 10.2368C15.5021 10.3027 15.4892 10.368 15.4639 10.4289C15.4387 10.4898 15.4017 10.5451 15.3551 10.5918Z" fill="url(#paint1_linear_2001_1529)"/>
<defs>
<linearGradient id="paint0_linear_2001_1529" x1="3.11511" y1="3.64682" x2="20.8944" y2="3.25454" gradientUnits="userSpaceOnUse">
<stop stop-color="#CC9177"/>
<stop offset="0.242874" stop-color="#E5B59E"/>
<stop offset="0.515487" stop-color="#C18369"/>
<stop offset="0.729115" stop-color="#EAB498"/>
<stop offset="1" stop-color="#E6A483"/>
</linearGradient>
<linearGradient id="paint1_linear_2001_1529" x1="8.51828" y1="1.7515" x2="15.4876" y2="1.66453" gradientUnits="userSpaceOnUse">
<stop stop-color="#CC9177"/>
<stop offset="0.242874" stop-color="#E5B59E"/>
<stop offset="0.515487" stop-color="#C18369"/>
<stop offset="0.729115" stop-color="#EAB498"/>
<stop offset="1" stop-color="#E6A483"/>
</linearGradient>
</defs>
</svg>
